<?xml version="1.0" encoding="UTF-8" standalone="no"?>
<!-- Created with Inkscape (http://www.inkscape.org/) -->

<svg
   version="1.1"
   id="svg132"
   width="100"
   height="100"
   viewBox="0 0 100 100"
   sodipodi:docname="logo.svg"
   xml:space="preserve"
   inkscape:version="1.2.1 (9c6d41e410, 2022-07-14)"
   inkscape:export-filename="logo.png"
   inkscape:export-xdpi="96"
   inkscape:export-ydpi="96"
   xmlns:inkscape="http://www.inkscape.org/namespaces/inkscape"
   xmlns:sodipodi="http://sodipodi.sourceforge.net/DTD/sodipodi-0.dtd"
   xmlns:xlink="http://www.w3.org/1999/xlink"
   xmlns="http://www.w3.org/2000/svg"
   xmlns:svg="http://www.w3.org/2000/svg"><defs
     id="defs136"><path
       d="M 240.037,20.3447 C 212.593,-7.09922 168.245,-7.27201 140.546,19.7592 L 140.486,19.6987 27.4288,132.756 c -36.57176,36.571 -36.57173,95.866 0,132.438 36.5719,36.572 95.8662,36.572 132.4382,0 l 32.302,-32.302 c 4.46,-4.46 4.46,-11.691 0,-16.151 -4.46,-4.46 -11.691,-4.46 -16.151,0 l -32.302,32.302 c -27.652,27.652 -72.4842,27.652 -100.1362,0 -27.6518,-27.652 -27.6519,-72.484 0,-100.136 L 156.637,35.8497 l 0.06,0.0605 c 18.777,-18.1136 48.664,-17.9388 67.189,0.5855 18.524,18.5243 18.699,48.4116 0.585,67.1883 L 111.414,216.741 c -9.812,9.812 -25.7203,9.812 -35.5322,0 -9.8119,-9.812 -9.8119,-25.72 0,-35.532 l 32.3022,-32.302 c 4.46,-4.46 4.46,-11.691 0,-16.151 -4.46,-4.46 -11.6912,-4.46 -16.1512,0 l -32.302,32.302 c -18.7318,18.732 -18.7318,49.102 0,67.834 18.732,18.732 49.1022,18.732 67.8342,0 L 240.622,119.835 c 27.031,-27.6986 26.859,-72.0464 -0.585,-99.4903 z"
       id="Mask" /><clipPath
       id="ClipPath-8">
<use
   xlink:href="#Mask"
   overflow="visible"
   fill="none"
   id="use962-0" />
</clipPath></defs><sodipodi:namedview
     id="namedview134"
     pagecolor="#ffffff"
     bordercolor="#000000"
     borderopacity="0.25"
     inkscape:showpageshadow="2"
     inkscape:pageopacity="0.0"
     inkscape:pagecheckerboard="0"
     inkscape:deskcolor="#d1d1d1"
     showgrid="false"
     inkscape:zoom="4.5961941"
     inkscape:cx="35.246553"
     inkscape:cy="70.493107"
     inkscape:window-width="1920"
     inkscape:window-height="1009"
     inkscape:window-x="-8"
     inkscape:window-y="-8"
     inkscape:window-maximized="1"
     inkscape:current-layer="g138" /><g
     inkscape:groupmode="layer"
     inkscape:label="Image"
     id="g138"><g
       id="g917"
       transform="matrix(0.99771544,0,0,0.99771544,-0.12994892,-0.12994886)"><g
         id="g912"
         transform="matrix(1.960973,0,0,1.960973,-37.258487,-26.639276)"><rect
           style="clip-rule:evenodd;fill:#7ce4f6;fill-rule:nonzero;stroke:#5b5b5b;stroke-width:1.0199;stroke-linecap:round;stroke-linejoin:round;stroke-dasharray:none"
           id="rect2931"
           width="46.109795"
           height="34.582344"
           x="19.57637"
           y="19.730217" /><rect
           style="clip-rule:evenodd;fill:#7ce4f6;fill-rule:nonzero;stroke:#5b5b5b;stroke-width:1.0199;stroke-linecap:round;stroke-linejoin:round;stroke-dasharray:none"
           id="rect2965"
           width="20.169931"
           height="15.127449"
           x="49.498398"
           y="43.55648" /></g></g></g></svg>
